<mxfile host="app.diagrams.net" modified="2024-02-20T11:08:01.729Z" agent="Mozilla/5.0 (Windows NT 10.0; Win64; x64) AppleWebKit/537.36 (KHTML, like Gecko) Chrome/121.0.0.0 Safari/537.36 Edg/121.0.0.0" version="23.1.1" etag="_O2VgPwH5vHZpzkuC-DD" type="github">
  <diagram name="PÃ¡gina-1" id="8C1CRBO38wYjmE2U_f-7">
    <mxGraphModel>
      <root>
        <mxCell id="0" />
        <mxCell id="1" parent="0" />
      </root>
    </mxGraphModel>
  </diagram>
</mxfile>
